Coordinates
version=1
nRows=13
nColumns=38
inDegrees=no

Units are S.I. units (second, meters, Newtons, ...)
If the header above contains a line with 'inDegrees', this indicates whether rotational values are in degrees (yes) or radians (no).

endheader
time	pelvis_tilt	pelvis_list	pelvis_rotation	pelvis_tx	pelvis_ty	pelvis_tz	hip_flexion_r	hip_adduction_r	hip_rotation_r	knee_angle_r	ankle_angle_r	subtalar_angle_r	mtp_angle_r	hip_flexion_l	hip_adduction_l	hip_rotation_l	knee_angle_l	ankle_angle_l	subtalar_angle_l	mtp_angle_l	lumbar_extension	lumbar_bending	lumbar_rotation	arm_flex_r	arm_add_r	arm_rot_r	elbow_flex_r	pro_sup_r	wrist_flex_r	wrist_dev_r	arm_flex_l	arm_add_l	arm_rot_l	elbow_flex_l	pro_sup_l	wrist_flex_l	wrist_dev_l
7.61	0.13702	1.55121	-1.51732	0.694168	0.468297	1.07817	-0.0239415	0.0435823	-0.107942	0.207918	-0.264953	0	0	0.0381853	-0.119692	-0.299882	0.467482	-0.230649	0	0	-0.437033	-0.0293463	-0.0940019	-0.0560256	-0.548842	0.437599	1.34029	1.11527	0	0	-0.334367	-0.564991	0.110936	1.51845	1.5485	0	0
7.62	0.133261	1.54979	-1.51274	0.694784	0.467384	1.07839	-0.0265867	0.0431339	-0.1099	0.208231	-0.26476	0	0	0.035679	-0.119584	-0.299554	0.467509	-0.230645	0	0	-0.435884	-0.0289708	-0.0933876	-0.0556007	-0.550817	0.431845	1.34732	1.11151	0	0	-0.331404	-0.561609	0.104143	1.52398	1.54841	0	0
7.63	0.140202	1.5484	-1.51939	0.695314	0.466569	1.07861	-0.0288158	0.0423964	-0.111046	0.209028	-0.264542	0	0	0.0331574	-0.119065	-0.29974	0.467221	-0.230919	0	0	-0.435061	-0.0288548	-0.0930786	-0.0535532	-0.552552	0.426875	1.35326	1.10816	0	0	-0.327096	-0.559408	0.0998308	1.52797	1.54807	0	0
7.64	0.162644	1.54695	-1.54201	0.695752	0.465892	1.07882	-0.0308648	0.0412897	-0.111235	0.209944	-0.264278	0	0	0.0306621	-0.117999	-0.29993	0.466858	-0.231305	0	0	-0.434997	-0.0294094	-0.0930939	-0.049534	-0.554006	0.423428	1.35754	1.10579	0	0	-0.321633	-0.558555	0.0975523	1.53053	1.54647	0	0
7.65	0.176493	1.54562	-1.5554	0.696322	0.46525	1.07902	-0.0328392	0.0401797	-0.112378	0.210941	-0.263746	0	0	0.0285027	-0.116905	-0.29926	0.466455	-0.231708	0	0	-0.435508	-0.0297008	-0.094107	-0.0443416	-0.554737	0.420924	1.35987	1.10583	0	0	-0.315569	-0.558078	0.0965431	1.53186	1.54377	0	0
7.66	0.173524	1.54513	-1.5516	0.696979	0.464603	1.07913	-0.0337422	0.0392406	-0.114254	0.212247	-0.263699	0	0	0.0273286	-0.116323	-0.298298	0.466345	-0.231567	0	0	-0.435205	-0.0293841	-0.0958292	-0.0380278	-0.55475	0.419498	1.35988	1.10519	0	0	-0.308891	-0.55816	0.0961956	1.53221	1.54392	0	0
7.67	0.162469	1.54455	-1.53956	0.697663	0.464024	1.07927	-0.0343619	0.0383035	-0.116765	0.213961	-0.263629	0	0	0.0261755	-0.115877	-0.297206	0.465897	-0.231723	0	0	-0.435651	-0.0283974	-0.0981702	-0.0301451	-0.554542	0.419244	1.35903	1.10574	0	0	-0.302393	-0.55884	0.0956278	1.5338	1.53903	0	0
7.68	0.14807	1.54434	-1.52424	0.698311	0.463505	1.07936	-0.0344695	0.0377123	-0.119123	0.215707	-0.263616	0	0	0.0255911	-0.115641	-0.296036	0.465583	-0.231892	0	0	-0.435973	-0.0269359	-0.100901	-0.0211201	-0.554031	0.419282	1.35789	1.10633	0	0	-0.296441	-0.559551	0.0940183	1.53686	1.5328	0	0
7.69	0.12694	1.54363	-1.50231	0.698945	0.463084	1.07946	-0.035062	0.0375031	-0.121735	0.217185	-0.263649	0	0	0.0246236	-0.115817	-0.294925	0.465818	-0.232022	0	0	-0.437926	-0.0243855	-0.102876	-0.0125206	-0.554179	0.41722	1.35914	1.10691	0	0	-0.289336	-0.560608	0.0928457	1.5412	1.52677	0	0
7.7	0.112251	1.54303	-1.48684	0.699613	0.462704	1.07953	-0.0355137	0.0370903	-0.124136	0.218731	-0.263616	0	0	0.0237307	-0.115568	-0.293211	0.465825	-0.232278	0	0	-0.440128	-0.0220405	-0.104921	-0.00339294	-0.554417	0.41467	1.36075	1.10719	0	0	-0.281781	-0.562532	0.0923587	1.54628	1.52038	0	0
7.71	0.100247	1.54265	-1.47393	0.700316	0.462329	1.07956	-0.0357349	0.0364998	-0.126838	0.220151	-0.263599	0	0	0.0232173	-0.115234	-0.29171	0.465943	-0.232295	0	0	-0.442284	-0.0200766	-0.107252	0.00670636	-0.554986	0.413139	1.36241	1.108	0	0	-0.273658	-0.565734	0.0938138	1.55143	1.51018	0	0
7.72	0.0904981	1.54299	-1.46306	0.701093	0.461965	1.07954	-0.0352727	0.0358876	-0.12794	0.221386	-0.26355	0	0	0.0235395	-0.114901	-0.290784	0.4662	-0.232127	0	0	-0.443478	-0.0182623	-0.109779	0.017867	-0.556167	0.412818	1.36376	1.10716	0	0	-0.26422	-0.569754	0.0975133	1.55507	1.49995	0	0
7.73	0.0790682	1.54362	-1.45015	0.701915	0.461667	1.0795	-0.0343669	0.0353555	-0.129043	0.222877	-0.263332	0	0	0.0245342	-0.114594	-0.289521	0.466923	-0.23162	0	0	-0.444552	-0.0162155	-0.112309	0.0301969	-0.558482	0.414583	1.36548	1.10488	0	0	-0.253549	-0.574508	0.102481	1.55754	1.48807	0	0
